<?xml version="1.0" standalone="no"?>
<!DOCTYPE svg PUBLIC "-//W3C//DTD SVG 20010904//EN"
 "http://www.w3.org/TR/2001/REC-SVG-20010904/DTD/svg10.dtd">
<svg version="1.0" xmlns="http://www.w3.org/2000/svg"
 width="675.000000pt" height="330.000000pt" viewBox="0 0 675.000000 330.000000"
 preserveAspectRatio="xMidYMid meet">

<g transform="translate(0.000000,330.000000) scale(0.100000,-0.100000)"
fill="#000000" stroke="none">
<path d="M4755 3267 c-82 -33 -119 -66 -198 -178 -87 -125 -211 -244 -516
-495 l-25 -22 56 -11 c209 -44 348 -214 348 -425 0 -193 -143 -458 -325 -605
l-67 -55 48 -24 c27 -14 72 -31 99 -38 68 -19 214 -17 289 2 227 58 440 262
515 493 23 72 43 205 66 452 17 176 44 309 95 454 35 103 40 193 13 271 -23
67 -110 154 -177 177 -57 20 -176 21 -221 4z"/>
<path d="M2426 1698 l-187 -213 59 -28 c175 -82 390 -68 547 37 l52 34 -73 75
c-74 76 -150 183 -185 262 -11 25 -21 45 -23 45 -2 0 -88 -96 -190 -212z"/>
<path d="M890 1180 c-126 -27 -248 -125 -290 -235 -31 -82 -31 -206 0 -287 31
-82 96 -150 188 -195 71 -35 83 -38 183 -41 115 -4 193 11 257 50 l32 20 0
169 0 169 -150 0 -150 0 0 -70 0 -70 65 0 65 0 0 -50 c0 -60 -13 -70 -100 -70
-72 0 -122 19 -168 63 -52 49 -66 83 -66 162 -1 110 47 182 148 220 63 24 184
17 244 -14 24 -12 46 -20 48 -18 3 3 8 36 11 74 4 51 2 71 -8 80 -47 37 -219
61 -309 43z"/>
<path d="M4730 1179 c-107 -21 -224 -108 -268 -201 -54 -110 -52 -256 5 -360
35 -64 110 -133 181 -166 51 -24 68 -27 172 -27 103 0 121 3 170 26 68 33 142
97 175 154 34 57 57 172 49 238 -30 232 -247 382 -484 336z m168 -165 c85 -35
132 -109 132 -209 0 -77 -15 -119 -60 -163 -47 -47 -88 -65 -150 -66 -150 -1
-251 144 -206 296 35 121 171 190 284 142z"/>
<path d="M5570 1179 c-108 -21 -225 -109 -269 -204 -92 -196 -14 -423 177
-517 64 -32 72 -33 182 -33 110 0 118 1 182 33 156 77 239 241 208 412 -15 85
-48 146 -108 202 -104 97 -232 134 -372 107z m168 -165 c162 -67 185 -302 40
-400 -104 -70 -230 -44 -297 61 -116 183 63 420 257 339z"/>
<path d="M1380 800 l0 -370 85 0 85 0 0 145 0 145 33 0 c30 0 38 -9 131 -145
l98 -145 95 0 c85 0 94 2 89 17 -4 9 -54 83 -113 166 -110 155 -109 150 -61
177 9 6 29 35 44 65 22 47 26 64 21 110 -6 63 -37 124 -79 155 -56 42 -101 50
-269 50 l-159 0 0 -370z m311 201 c65 -65 11 -141 -101 -141 l-40 0 0 85 0 85
56 0 c48 0 59 -4 85 -29z"/>
<path d="M2050 800 l0 -370 230 0 230 0 0 75 0 75 -140 0 -140 0 0 75 0 75
100 0 100 0 0 75 0 75 -100 0 -100 0 0 70 0 70 125 0 125 0 0 75 0 75 -215 0
-215 0 0 -370z"/>
<path d="M2600 800 l0 -370 230 0 230 0 0 75 0 75 -140 0 -140 0 0 75 0 75
100 0 100 0 0 75 0 75 -100 0 -100 0 0 70 0 70 125 0 125 0 0 75 0 75 -215 0
-215 0 0 -370z"/>
<path d="M3150 800 l0 -370 90 0 90 0 0 233 1 232 20 -25 c11 -14 107 -121
212 -237 l191 -213 43 0 43 0 0 375 0 375 -90 0 -90 0 0 -202 -1 -203 -32 35
c-17 20 -99 111 -182 203 l-150 167 -72 0 -73 0 0 -370z"/>
<path d="M3970 800 l0 -370 90 0 90 0 0 150 0 150 105 0 105 0 0 75 0 75 -105
0 -105 0 0 70 0 70 130 0 130 0 0 75 0 75 -220 0 -220 0 0 -370z"/>
<path d="M6102 803 l3 -368 134 -3 c220 -4 321 27 415 129 68 73 90 134 90
244 -1 106 -30 182 -94 246 -93 93 -179 119 -397 119 l-153 0 2 -367z m359
180 c28 -15 58 -38 68 -52 58 -83 53 -194 -12 -268 -44 -50 -98 -73 -174 -73
l-63 0 0 216 0 217 66 -6 c43 -4 82 -16 115 -34z"/>
<path d="M2825 321 c-50 -21 -60 -47 -60 -152 0 -94 1 -100 27 -125 51 -51
177 -41 208 15 5 11 10 61 10 111 0 102 -7 123 -50 145 -31 16 -102 19 -135 6z
m129 -42 c25 -19 26 -25 26 -109 0 -84 -1 -90 -26 -109 -41 -32 -121 -25 -146
13 -4 6 -8 49 -8 96 0 47 4 90 8 96 25 38 105 45 146 13z"/>
<path d="M3392 315 c-18 -8 -37 -26 -42 -40 -16 -41 -12 -181 5 -215 29 -55
135 -65 190 -17 19 16 27 36 32 75 l6 52 -67 0 c-52 0 -66 -3 -66 -15 0 -11
12 -15 45 -15 43 0 45 -1 45 -28 0 -31 -22 -56 -58 -65 -32 -8 -90 11 -102 33
-16 30 -12 162 5 187 24 34 76 39 124 12 23 -12 44 -20 47 -16 13 13 -7 38
-41 52 -43 19 -80 18 -123 0z"/>
<path d="M4355 316 c-53 -23 -60 -40 -60 -146 0 -112 10 -132 77 -152 46 -14
105 1 133 33 16 17 17 22 5 29 -10 6 -21 3 -35 -10 -28 -27 -105 -27 -128 -2
-26 28 -24 182 1 205 26 24 100 22 127 -3 13 -13 25 -16 35 -10 12 7 12 11 -1
26 -17 21 -71 44 -101 44 -13 -1 -37 -7 -53 -14z"/>
<path d="M3080 165 c0 -131 2 -155 15 -155 12 0 15 14 15 65 0 64 0 65 28 65
21 -1 37 -14 77 -65 28 -37 58 -65 67 -65 10 0 18 2 18 4 0 2 -20 30 -45 62
-50 64 -54 74 -26 74 31 0 61 32 68 72 5 32 1 41 -25 68 -29 28 -35 30 -111
30 l-81 0 0 -155z m161 115 c22 -12 27 -68 7 -88 -7 -7 -39 -12 -75 -12 l-63
0 0 55 0 55 56 0 c30 0 64 -5 75 -10z"/>
<path d="M3700 317 c0 -2 -25 -70 -55 -152 -30 -82 -52 -151 -50 -153 12 -12
35 12 47 50 l15 43 65 3 66 3 17 -51 c9 -29 23 -50 31 -50 21 0 19 10 -38 166
-47 128 -55 144 -75 144 -13 0 -23 -1 -23 -3z m46 -89 c9 -29 19 -59 22 -65 3
-9 -10 -13 -46 -13 l-50 0 19 53 c11 28 22 58 24 65 7 21 13 14 31 -40z"/>
<path d="M3900 165 c0 -131 2 -155 15 -155 13 0 15 20 15 120 0 66 3 120 8
120 4 -1 40 -55 80 -120 53 -87 78 -120 92 -120 19 0 20 8 20 155 0 130 -2
155 -15 155 -12 0 -15 -23 -17 -127 l-3 -126 -78 126 c-56 91 -84 127 -98 127
-18 0 -19 -9 -19 -155z"/>
<path d="M4202 168 c3 -136 5 -153 21 -156 16 -3 17 9 17 152 0 150 -1 156
-20 156 -20 0 -20 -5 -18 -152z"/>
</g>
</svg>
