<?xml version="1.0" standalone="no"?>
<!DOCTYPE svg PUBLIC "-//W3C//DTD SVG 20010904//EN"
 "http://www.w3.org/TR/2001/REC-SVG-20010904/DTD/svg10.dtd">
<svg version="1.0" xmlns="http://www.w3.org/2000/svg"
 width="385.000000pt" height="441.000000pt" viewBox="0 0 385.000000 441.000000"
 preserveAspectRatio="xMidYMid meet">

<g transform="translate(0.000000,441.000000) scale(0.100000,-0.100000)"
fill="#000000" stroke="none">
<path d="M2472 4352 c-116 -113 -167 -277 -139 -445 l8 -48 -45 35 c-42 32
-115 64 -178 80 -26 6 -27 4 -44 -63 l-18 -68 -180 -6 c-169 -5 -282 -19 -401
-50 l-50 -12 -55 55 c-30 30 -83 70 -117 88 l-62 32 -16 -22 c-26 -38 -55
-146 -55 -207 l0 -57 -58 -28 c-149 -73 -298 -177 -447 -312 -81 -72 -81 -73
-120 -64 -22 5 -43 10 -46 10 -9 0 -29 -83 -29 -123 0 -24 -12 -49 -41 -88
-105 -140 -213 -350 -273 -534 -66 -200 -96 -389 -96 -610 1 -809 512 -1527
1278 -1799 747 -265 1592 -36 2099 567 310 370 464 814 450 1297 -6 194 -23
308 -72 481 -128 445 -447 864 -833 1095 -34 20 -62 39 -62 43 0 3 9 35 20 69
13 43 20 92 20 148 l0 84 -49 0 c-54 0 -165 -31 -196 -54 -32 -25 -34 -19 -10
47 46 126 39 263 -20 382 -29 60 -81 125 -100 125 -8 0 -36 -22 -63 -48z m106
-102 c80 -160 57 -345 -58 -471 -39 -43 -40 -44 -56 -24 -29 36 -65 122 -76
186 -13 75 1 169 37 246 26 57 92 135 109 130 6 -1 26 -32 44 -67z m-368 -375
c147 -74 238 -235 228 -403 -2 -39 -6 -74 -10 -77 -12 -12 -119 47 -173 97
-78 71 -125 168 -132 276 -6 91 1 132 23 132 8 0 37 -11 64 -25z m-952 -29
c146 -92 220 -311 157 -462 l-14 -35 -28 17 c-152 94 -227 286 -178 452 9 29
18 52 21 52 2 0 21 -11 42 -24z m1592 -59 c0 -177 -163 -366 -339 -393 l-44
-7 5 70 c9 122 79 242 185 315 47 32 134 66 171 67 20 1 22 -3 22 -52z m-1146
-254 c41 -117 27 -245 -37 -352 -36 -60 -109 -126 -131 -118 -28 11 -49 103
-44 202 3 79 8 101 36 158 32 65 119 157 147 157 7 0 20 -21 29 -47z m468 -79
c164 -83 261 -270 231 -447 -5 -35 -8 -38 -32 -32 -45 11 -132 68 -173 115
-22 25 -54 72 -71 105 -27 52 -31 73 -35 157 -4 100 -1 128 18 128 6 0 34 -12
62 -26z m648 -76 c-1 -184 -145 -362 -326 -404 -51 -11 -52 -11 -57 12 -2 13
0 49 5 80 24 154 153 297 308 340 69 19 70 19 70 -28z m-1546 -58 c109 -54
224 -195 214 -263 -2 -18 -11 -23 -41 -25 -127 -11 -299 86 -359 202 -29 56
-48 113 -40 121 4 4 42 5 84 2 59 -4 91 -12 142 -37z m750 8 c2 -7 9 -35 15
-63 6 -27 23 -72 36 -100 13 -27 22 -51 20 -53 -2 -2 -19 1 -39 6 l-36 10 -15
-51 c-8 -29 -16 -76 -17 -105 -2 -48 -5 -54 -36 -73 -19 -11 -36 -18 -38 -16
-2 2 1 21 7 43 7 22 9 77 6 127 -4 76 -10 99 -41 163 -38 77 -49 84 -82 59
-28 -21 -35 -18 -28 13 11 45 29 52 141 52 75 0 105 -4 107 -12z m-174 -184
c48 -158 2 -323 -122 -428 -23 -20 -45 -36 -49 -36 -14 0 -40 101 -46 175 -10
130 42 249 145 328 19 15 39 27 43 27 5 0 17 -30 29 -66z m-1286 29 c55 -28
123 -102 150 -163 28 -62 44 -175 28 -199 -14 -20 -90 17 -152 75 -62 58 -99
134 -107 218 -9 102 0 110 81 69z m590 -106 l29 -24 -33 -6 -33 -7 6 -53 c10
-82 67 -185 138 -251 34 -32 60 -59 58 -60 -2 -2 -18 -7 -35 -10 -28 -6 -31
-4 -52 42 -24 52 -87 132 -104 132 -7 0 -19 -7 -28 -15 -16 -14 -18 -11 -23
44 -4 33 -16 83 -26 112 -19 49 -19 53 -3 65 9 6 28 21 42 33 31 26 29 26 64
-2z m1005 -54 c124 -72 211 -226 211 -373 0 -87 -25 -103 -100 -65 -69 35
-143 113 -182 192 -28 57 -34 81 -37 150 -1 46 0 95 3 109 6 22 11 25 34 19
15 -3 47 -18 71 -32z m-1189 -19 c72 -115 62 -275 -27 -390 l-27 -36 -28 33
c-58 69 -76 213 -38 310 21 56 67 129 82 129 4 0 22 -21 38 -46z m2022 -143
c37 -42 68 -79 68 -83 0 -4 -24 -13 -52 -22 -205 -58 -240 -67 -244 -63 -2 2
7 24 21 49 36 65 55 134 55 207 l0 63 42 -37 c22 -21 72 -72 110 -114z m-1670
128 c146 -31 293 -168 310 -289 3 -24 0 -25 -55 -28 -78 -4 -153 19 -228 71
-70 48 -109 98 -144 182 -18 44 -21 62 -12 67 17 11 68 10 129 -3z m1458 -39
c0 -87 -45 -193 -117 -275 -11 -13 -61 -32 -134 -53 -64 -17 -119 -32 -124
-32 -17 0 3 101 33 164 52 111 168 209 279 235 63 15 63 15 63 -39z m-799
-155 c26 -60 35 -159 19 -226 -22 -95 -30 -103 -117 -128 -43 -12 -85 -24 -94
-27 -41 -12 -28 159 20 262 28 60 118 164 142 164 6 0 19 -20 30 -45z m-1264
-68 c68 -35 112 -75 141 -126 22 -39 22 -42 5 -49 -10 -4 -61 -7 -113 -7 -84
0 -101 3 -148 28 -59 31 -123 90 -147 137 -15 29 -15 31 7 40 13 5 64 8 113 7
74 -3 99 -8 142 -30z m432 5 c61 -86 76 -231 33 -326 -28 -62 -70 -118 -83
-110 -5 3 -24 33 -41 67 -56 112 -48 243 23 350 17 26 35 47 39 47 5 0 18 -13
29 -28z m991 -219 c-103 -31 -99 -32 -84 29 8 29 14 71 14 93 l0 40 73 -70 73
-70 -76 -22z m-678 96 c101 -22 215 -99 261 -178 l18 -30 -68 -20 c-87 -25
-146 -41 -155 -41 -3 0 -28 17 -55 39 -56 44 -109 120 -128 185 -12 40 -12 45
3 49 31 8 71 7 124 -4z m1863 -83 c35 -15 55 -42 55 -75 0 -16 -11 -24 -52
-36 -66 -19 -71 -19 -86 5 -7 12 -23 20 -38 20 -64 0 -94 -47 -94 -147 0 -89
22 -137 66 -141 36 -4 81 28 86 61 2 17 15 26 53 39 71 23 75 22 75 -14 0 -74
-76 -151 -180 -182 -71 -21 -108 -20 -148 4 -44 27 -69 71 -82 149 -25 151 38
260 177 307 79 27 120 30 168 10z m-2451 -76 c30 -12 73 -36 96 -54 50 -39
104 -116 92 -128 -15 -15 -109 -25 -164 -18 -102 14 -210 86 -253 169 -15 30
-15 32 7 41 43 17 164 11 222 -10z m474 -30 c31 -46 49 -109 34 -119 -19 -12
-162 -45 -168 -39 -20 21 73 204 99 195 7 -2 22 -19 35 -37z m-577 -194 c39
-20 86 -38 105 -42 19 -3 34 -9 34 -13 0 -4 -278 -85 -377 -109 -25 -6 -10
113 34 271 l16 57 59 -65 c42 -45 79 -74 129 -99z m2055 149 c26 -17 50 -73
38 -84 -5 -5 -33 -16 -63 -24 -54 -16 -55 -16 -77 9 -27 28 -22 27 -63 13 -56
-20 -82 -104 -62 -201 14 -68 38 -92 79 -83 34 7 56 28 70 66 8 19 23 29 66
41 63 17 71 13 62 -36 -17 -92 -121 -165 -244 -174 -66 -4 -69 -4 -104 29 -24
23 -41 52 -52 88 -50 168 24 313 184 362 44 13 144 10 166 -6z m712 -176 c-3
-40 -5 -43 -45 -54 -23 -7 -45 -10 -48 -7 -3 3 -5 22 -5 43 0 35 3 39 33 48
63 18 68 15 65 -30z m-1275 -174 c66 -133 93 -197 85 -200 -25 -9 -113 -35
-120 -35 -4 0 -14 16 -22 35 -17 40 -19 41 -100 19 -74 -20 -78 -24 -91 -76
-10 -38 -14 -41 -67 -58 -32 -10 -59 -16 -61 -14 -2 2 26 113 62 246 l66 242
55 17 c96 30 85 40 193 -176z m-441 51 l3 -39 -60 -17 -60 -17 0 -79 c0 -43 2
-124 5 -179 l5 -99 -59 -18 c-33 -10 -61 -16 -63 -14 -2 2 -9 80 -15 172 -6
93 -12 171 -14 173 -2 2 -23 -1 -46 -8 -24 -7 -51 -15 -61 -17 -16 -5 -18 0
-15 42 l3 48 180 51 c99 29 183 49 187 46 3 -3 8 -24 10 -45z m1176 -29 c3
-39 -2 -44 -70 -61 -27 -6 -28 -5 -28 37 0 41 2 45 33 55 51 16 62 11 65 -31z
m-518 -147 c0 -34 -4 -39 -31 -49 -58 -20 -69 -15 -69 28 0 37 2 40 43 54 23
8 45 12 50 10 4 -2 7 -21 7 -43z m-1612 -81 c-3 -40 -5 -42 -48 -55 -67 -20
-70 -19 -70 25 0 39 1 40 48 54 72 23 74 22 70 -24z m348 -22 c31 -27 42 -80
43 -200 1 -86 0 -87 -81 -102 l-35 -7 -6 102 c-7 107 -16 131 -47 123 -29 -8
-38 -50 -32 -155 l5 -96 -54 -15 c-29 -9 -56 -14 -59 -12 -4 2 -10 64 -14 137
-3 73 -8 142 -9 152 -2 16 9 23 53 37 47 14 56 15 60 2 5 -11 10 -10 25 8 23
25 70 48 102 49 12 0 34 -10 49 -23z m2114 -22 c0 -52 -38 -217 -72 -314 -122
-345 -373 -628 -707 -795 -40 -21 -75 -36 -77 -34 -2 2 23 157 54 343 l58 339
106 -204 c58 -113 113 -209 122 -215 29 -17 46 17 34 68 -5 23 -34 156 -63
296 -30 140 -60 260 -67 267 -11 11 -28 9 -97 -10 -46 -12 -89 -30 -96 -39 -7
-9 -15 -43 -19 -75 -7 -66 -113 -695 -123 -732 -13 -50 -22 93 -29 480 l-7
385 484 137 c266 75 487 136 492 137 4 1 7 -15 7 -34z m-2655 -20 c16 -15 25
-36 25 -54 0 -27 -4 -31 -42 -41 -24 -6 -49 -13 -57 -16 -8 -2 -20 5 -28 16
-8 11 -22 20 -31 20 -26 0 -62 -29 -62 -49 0 -23 27 -31 108 -31 35 0 75 -6
91 -15 82 -42 57 -181 -43 -240 -24 -14 -73 -32 -109 -41 -79 -20 -118 -9
-148 40 -32 52 -26 72 25 85 24 6 50 13 58 16 9 4 19 -4 26 -20 22 -47 112
-20 112 34 0 26 -19 31 -110 31 -99 0 -129 20 -137 91 -12 106 98 197 240 199
49 0 62 -4 82 -25z m1175 -34 c0 -35 -3 -39 -39 -49 -59 -18 -62 -17 -59 30 3
40 5 43 43 54 22 6 43 9 48 7 4 -2 7 -21 7 -42z m-963 -146 c7 -82 9 -152 5
-156 -12 -12 -111 -38 -116 -31 -2 4 -7 77 -11 163 l-7 156 38 11 c80 21 78
25 91 -143z m1371 -332 c2 -142 7 -321 12 -398 12 -203 12 -203 -55 75 -27
107 -69 271 -96 365 -26 93 -47 171 -46 171 6 5 173 50 177 48 3 -1 6 -118 8
-261z m-245 86 c36 -121 177 -675 177 -697 0 -9 -31 46 -70 121 -78 153 -230
411 -315 532 -30 44 -51 81 -47 83 62 20 209 60 217 58 6 -1 23 -45 38 -97z
m-260 -131 c52 -79 129 -203 171 -277 83 -144 199 -371 194 -377 -2 -2 -73 84
-158 190 l-153 194 -76 12 c-41 7 -80 14 -87 17 -25 9 -40 -29 -78 -196 -22
-95 -45 -175 -51 -177 -15 -6 -139 43 -238 92 -153 78 -324 213 -430 342 -33
40 -58 74 -56 76 4 4 846 244 860 245 4 1 50 -63 102 -141z m146 -533 l110
-140 -92 -3 c-96 -3 -256 13 -270 27 -8 8 19 60 110 219 14 24 26 42 28 40 2
-2 53 -66 114 -143z"/>
<path d="M2068 2008 c-9 -46 -15 -84 -13 -86 5 -6 96 21 93 27 -2 4 -14 37
-27 74 -14 37 -28 67 -31 67 -3 0 -13 -37 -22 -82z"/>
</g>
</svg>
